<svg xmlns="http://www.w3.org/2000/svg" viewBox="0 0 423.84 454.64">
  <defs>
    <style>
      .cls-1 {
        fill: #394b70;
      }
    </style>
  </defs>
  <title>faq-1</title>
  <g id="Layer_2" data-name="Layer 2">
    <g id="Layer_1-2" data-name="Layer 1">
      <path class="cls-1" d="M142.06,265.2A123.13,123.13,0,1,1,265.19,142.07a9.48,9.48,0,0,0,18.95,0C284.14,63.73,220.41,0,142.07,0S0,63.73,0,142.07,63.73,284.14,142.07,284.14a9.47,9.47,0,1,0,0-18.94Zm0-198.9c-21.45,0-44.44,14.38-47.36,46.5l18.79,1.71c2.53-27.85,24-29.27,28.31-29.27,6.67,0,28.12,1.75,28.12,24.27,0,11.88-6.93,17.66-17.27,26.09-9.46,7.71-22.39,17.29-22.39,34.89V180h18.94v-9.47c0-8.2,6.31-12.8,15.4-20.21,10.55-8.58,24.83-19.28,24.83-40.77,0-25.84-19.05-43.21-47.37-43.21Zm7.14,132.6H130.23v18.94h18.94ZM388.33,180H217.84c-20.89,0-40.26,17-40.26,37.89v161c0,20.89,19.37,37.88,40.26,37.88h52.09l25.57,34.1a9.47,9.47,0,0,0,15.16,0l25.57-34.1h52.09c20.9,0,35.52-17,35.52-37.88v-161c0-20.89-14.62-37.89-35.52-37.89Zm16.57,198.9c0,10.44-6.13,18.94-16.57,18.94H331.5a9.5,9.5,0,0,0-7.58,3.79l-20.84,27.78-20.83-27.78a9.5,9.5,0,0,0-7.58-3.79H217.84c-10.45,0-21.31-8.5-21.31-18.94v-161c0-10.44,10.86-18.94,21.31-18.94H388.33c10.44,0,16.57,8.5,16.57,18.94ZM292.82,326.79,253,286.92l-13.4,13.39,47.36,47.36a9.43,9.43,0,0,0,6.69,2.78l.53,0a9.5,9.5,0,0,0,6.87-3.54l75.78-94.71L362,240.34Z"/>
    </g>
  </g>
</svg>
