<svg xmlns="http://www.w3.org/2000/svg" viewBox="0 0 71.61 76">
  <defs>
    <style>
      .cls-1 {
        fill: #FEFEFE;
      }
    </style>
  </defs>
  <title>angry</title>
  <g id="Layer_2" data-name="Layer 2">
    <g id="Layer_1-2" data-name="Layer 1">
      <g>
        <path class="cls-1" d="M35.79,30.71a9.19,9.19,0,1,0-9.18-9.18,9.2,9.2,0,0,0,9.18,9.18Zm0-15A5.85,5.85,0,1,1,30,21.53a5.85,5.85,0,0,1,5.84-5.85Z"/>
        <path class="cls-1" d="M35.79,10a1.67,1.67,0,0,0,1.67-1.67V1.66a1.67,1.67,0,0,0-3.34,0V8.35A1.68,1.68,0,0,0,35.79,10Z"/>
        <path class="cls-1" d="M45.5,13.6a1.64,1.64,0,0,0,1.17-.5l4.72-4.72a1.65,1.65,0,0,0,0-2.37A1.69,1.69,0,0,0,49,6l-4.72,4.73A1.68,1.68,0,0,0,45.5,13.6Z"/>
        <path class="cls-1" d="M24.93,13.1a1.64,1.64,0,0,0,1.18.5,1.68,1.68,0,0,0,1.18-2.86L22.57,6A1.7,1.7,0,0,0,20.2,6a1.68,1.68,0,0,0,0,2.37l4.73,4.72Z"/>
        <path class="cls-1" d="M69.31,49.23l-14.45-11a19.16,19.16,0,0,0-11.61-3.93H28.34a19.17,19.17,0,0,0-11.6,3.93l-14.45,11a5.85,5.85,0,0,0,0,9.28L14.73,68a5.79,5.79,0,0,0,6.05.63v5.7A1.67,1.67,0,0,0,22.45,76H49.16a1.67,1.67,0,0,0,1.67-1.67V68.65A5.83,5.83,0,0,0,56.89,68l12.42-9.49a5.85,5.85,0,0,0,0-9.3ZM20.77,57.92l-5.3-4,5.3-4.06v8.1Zm46.51-2.05L54.86,65.35a2.46,2.46,0,0,1-2.64.26,2.44,2.44,0,0,1-1.4-2.24,2.5,2.5,0,0,1,1-2l8.09-6.18a1.69,1.69,0,0,0,.65-1.33,1.71,1.71,0,0,0-.65-1.34l-9.73-7.41a1.68,1.68,0,0,0-2.69,1.33V72.66H24.11V46.45a1.67,1.67,0,0,0-2.68-1.33l-9.72,7.42a1.69,1.69,0,0,0-.66,1.34,1.67,1.67,0,0,0,.65,1.32l8.09,6.19a2.49,2.49,0,1,1-3,4L4.33,55.87a2.49,2.49,0,0,1-1-2,2.45,2.45,0,0,1,1-2l14.44-11a15.94,15.94,0,0,1,9.57-3.24H43.25a15.93,15.93,0,0,1,9.58,3.23l14.45,11a2.45,2.45,0,0,1,1,2,2.49,2.49,0,0,1-1,2ZM50.82,57.92v-8.1l5.31,4.06-5.31,4Z"/>
      </g>
    </g>
  </g>
</svg>
