<svg xmlns="http://www.w3.org/2000/svg" viewBox="0 0 394.65 434.11">
  <defs>
    <style>
      .cls-1 {
        fill: #FEFEFE;
      }
    </style>
  </defs>
  <title>blog-1</title>
  <g id="Layer_2" data-name="Layer 2">
    <g id="Layer_1-2" data-name="Layer 1">
      <path class="cls-1" d="M374.92,157.86H276.25V19.73A19.72,19.72,0,0,0,256.52,0H19.73A19.73,19.73,0,0,0,0,19.73V335.45a98.67,98.67,0,0,0,98.66,98.66H315.72a78.94,78.94,0,0,0,78.93-78.93V177.59a19.73,19.73,0,0,0-19.73-19.73ZM197.33,276.25H78.94V236.79H197.33Zm0-78.93H78.94V157.86H197.33ZM355.19,355.18h0a39.47,39.47,0,1,1-78.93,0V197.32h78.93Z"/>
    </g>
  </g>
</svg>
