<svg xmlns="http://www.w3.org/2000/svg" viewBox="0 0 65.98 82.53">
  <defs>
    <style>
      .cls-1 {
        fill: #FEFEFE;
      }
    </style>
  </defs>
  <title>brain</title>
  <g id="Layer_2" data-name="Layer 2">
    <g id="Layer_1-2" data-name="Layer 1">
      <path class="cls-1" d="M7.72,62.21a2.25,2.25,0,0,1-1.44-1.06v0h0a3.45,3.45,0,0,1,0-2.83c.06-.2.12-.44,0-.6l-.15-.1h0c-1.2-.78-1.18-2.37-.79-3.58a5.19,5.19,0,0,0,.27-1.79l-.07,0-.16,0L4.78,52A8.62,8.62,0,0,1,2,51,3.81,3.81,0,0,1,.08,47.89h0a5.87,5.87,0,0,1,.23-1.82l-.31.3.5-.87a6,6,0,0,1,.82-1.43L5,37.61l.47-.82s0-.09.07-.14a2.53,2.53,0,0,0,.18-.37c.34-1.06-.2-2.6-.52-3.61C5,32,4.78,31.28,4.62,30.58h0a17.12,17.12,0,0,1-.24-1.75,18.83,18.83,0,0,1,.27-5A24.45,24.45,0,0,1,6.1,19a29.91,29.91,0,0,1,7-10.22A32.52,32.52,0,0,1,24.19,2.14,36.06,36.06,0,0,1,37.41,0,31.59,31.59,0,0,1,52.56,4.34,27,27,0,0,1,62.92,15.08c.27.5.51,1,.73,1.55a32.79,32.79,0,0,1,1.47,19.8A54.41,54.41,0,0,1,54.87,57.57a4,4,0,0,0-.81,2.65v.14a47.9,47.9,0,0,0,3.5,14.86,1.63,1.63,0,1,1-3,1.27,51.35,51.35,0,0,1-3.74-15.87,7.29,7.29,0,0,1,1.29-4.78h0l.19-.24A51,51,0,0,0,61.89,36a29.52,29.52,0,0,0-1.24-18.06A23.2,23.2,0,0,0,51.51,7.5,28,28,0,0,0,37.33,3.26a33.11,33.11,0,0,0-12,1.92,29.31,29.31,0,0,0-10,6,26.81,26.81,0,0,0-5.91,8.27A18,18,0,0,0,7.67,29a9.28,9.28,0,0,0,.15.92c.08.37.17.72.27,1.08l.22.67a14.9,14.9,0,0,1,.75,3.15,5.6,5.6,0,0,1-.71,3.49l-.67,1.19c-.49.84-1,1.69-1.45,2.53L4.1,45.77a1,1,0,0,1-.12.17H4a2.74,2.74,0,0,0-.65,1.7.88.88,0,0,0,.1.37,1.18,1.18,0,0,0,.57.41,11,11,0,0,0,1.49.42l.6.13a4.49,4.49,0,0,1,1.49.6,2.61,2.61,0,0,1,1.2,2A8.49,8.49,0,0,1,8.39,55a.47.47,0,0,0,0,.17,3.69,3.69,0,0,1,1,4.2,3.41,3.41,0,0,1,1.36,1.43A3.37,3.37,0,0,1,11,63.05h0v0a.24.24,0,0,0,0,.08,8.87,8.87,0,0,0-.4,2.8,3.55,3.55,0,0,0,1.6,3.2c1.76,1,4.31.82,6.26.62.25,0,.49,0,.73-.07.82-.08,1.65-.16,2.49-.2,1.59-.2,4-.18,5,1.3.22.3.43.63.62,1a19.36,19.36,0,0,1,1.2,2.3,14.51,14.51,0,0,1,1.4,7,1.63,1.63,0,0,1-1.62,1.49h-.15A1.63,1.63,0,0,1,27,82a1.61,1.61,0,0,1-.37-1.19v0a11.15,11.15,0,0,0-1.1-5.23,18.62,18.62,0,0,0-1-1.89l-.5-.79a5.05,5.05,0,0,0-1.86-.09v0h-.34c-.79,0-1.57.12-2.37.19-3,.3-6.24.61-9-1-3.4-2-3.7-6.21-2.68-9.66a.63.63,0,0,0-.12-.1ZM27,18.39l1.91-1.88h0a1.31,1.31,0,0,0,.38-.93,1.33,1.33,0,0,0-.4-.91L25,10.92a1.3,1.3,0,0,0-1.82.05,1.28,1.28,0,0,0,.05,1.81l3,2.83-1.94,1.92h0a1.28,1.28,0,0,0,0,1.86L28.36,23a1.29,1.29,0,0,0,.92.33,1.36,1.36,0,0,0,.88-.42,1.3,1.3,0,0,0,.33-.93,1.28,1.28,0,0,0-.43-.89l-3-2.74Zm15.32,4.55a1.27,1.27,0,0,0,1.8.09l4.09-3.65a1.27,1.27,0,0,0,0-1.86l-1.94-1.91,3-2.83h0a1.28,1.28,0,0,0-1.77-1.86l-3.93,3.75a1.25,1.25,0,0,0-.39.91,1.3,1.3,0,0,0,.38.92l1.91,1.88-3.05,2.75A1.34,1.34,0,0,0,42,22a1.38,1.38,0,0,0,.33.93ZM38.49,11l-3.57,4h0a1.29,1.29,0,0,0,0,1.72l1.34,1.45-2.87,3.06a1.26,1.26,0,0,0-.34.91,1.29,1.29,0,0,0,.4.89A1.27,1.27,0,0,0,35.26,23L39,19.05h0a1.3,1.3,0,0,0,0-1.75L37.6,15.83l2.79-3.12h0a1.27,1.27,0,0,0-.09-1.81,1.3,1.3,0,0,0-1.81.1ZM28.36,26.88l-4.08,3.65h0a1.28,1.28,0,0,0,0,1.86l1.94,1.92-3,2.83h0A1.28,1.28,0,1,0,25,39l3.93-3.74a1.27,1.27,0,0,0,.39-.92,1.25,1.25,0,0,0-.37-.91L27,31.53l3.06-2.74a1.26,1.26,0,0,0,.1-1.8,1.25,1.25,0,0,0-1.8-.11Zm18,7.43,1.94-1.92a1.3,1.3,0,0,0,.39-.94,1.25,1.25,0,0,0-.44-.92l-4.07-3.65h0a1.27,1.27,0,0,0-.91-.33A1.3,1.3,0,0,0,42,27.9a1.27,1.27,0,0,0,.44.88l3.05,2.74-1.91,1.9a1.28,1.28,0,0,0,0,1.83L47.52,39A1.27,1.27,0,0,0,49.68,38a1.24,1.24,0,0,0-.39-.89l-3-2.84Zm7-6.83a1.23,1.23,0,0,0,.57.8,1.31,1.31,0,0,0,1,.16l5.33-1.29a1.3,1.3,0,0,0,.94-1.55,1.34,1.34,0,0,0-.58-.79,1.29,1.29,0,0,0-1-.16l-4.07,1L55,23.08a1.27,1.27,0,0,0-1.5-1l-4,.83h0a1.29,1.29,0,0,0-1,1.51,1.27,1.27,0,0,0,1.5,1l2.83-.57.6,2.61Zm-29.3-3A1.27,1.27,0,0,0,23.11,23l-3.39-.84h0a1.26,1.26,0,0,0-1,.17,1.24,1.24,0,0,0-.57.8l-.59,2.57-4.06-1h0a1.27,1.27,0,0,0-1,.15,1.25,1.25,0,0,0-.58.8,1.3,1.3,0,0,0,.15,1,1.35,1.35,0,0,0,.8.58l5.31,1.3a1.3,1.3,0,0,0,1-.17,1.24,1.24,0,0,0,.57-.8l.59-2.57,2.14.5h0a1.26,1.26,0,0,0,1.55-.93ZM37.6,34.09,39,32.62h0a1.29,1.29,0,0,0,0-1.75L35.26,27h0a1.28,1.28,0,0,0-1.87,1.75l2.87,3-1.33,1.47h0a1.3,1.3,0,0,0,0,1.73l3.57,4h0A1.3,1.3,0,0,0,40.3,39a1.27,1.27,0,0,0,.11-1.8L37.6,34.09Z"/>
    </g>
  </g>
</svg>
