<svg xmlns="http://www.w3.org/2000/svg" viewBox="0 0 80.32 73">
  <defs>
    <style>
      .cls-1 {
        fill: #FEFEFE;
      }
    </style>
  </defs>
  <title>chat</title>
  <g id="Layer_2" data-name="Layer 2">
    <g id="Layer_1-2" data-name="Layer 1">
      <path class="cls-1" d="M33.23,65.3a40.24,40.24,0,0,0,6.92.59,38.43,38.43,0,0,0,25.15-9c6.39-5.54,10.36-13.17,10.36-21.59s-4-16-10.36-21.58a38.41,38.41,0,0,0-25.15-9,38.42,38.42,0,0,0-25.14,9C8.62,19.24,4.67,26.87,4.67,35.28A28.24,28.24,0,0,0,7.34,47a28.4,28.4,0,0,0,3.12,5.18,29.11,29.11,0,0,0,4.15,4.38,2.4,2.4,0,0,1,.76,1.37,2.26,2.26,0,0,1-.28,1.54,47.13,47.13,0,0,1-3.89,5.65c-.79,1-1.61,1.93-2.46,2.84,1.83-.19,3.91-.49,6-.93a36,36,0,0,0,9.85-3.29,2.11,2.11,0,0,1,.93-.29,2.31,2.31,0,0,1,1,.14,41.35,41.35,0,0,0,6.71,1.75Zm-21.41-55A43,43,0,0,1,40.15,0,43,43,0,0,1,68.49,10.3c7.31,6.39,11.83,15.24,11.83,25s-4.53,18.58-11.83,25a43,43,0,0,1-28.34,10.3,46,46,0,0,1-7.43-.6,44.29,44.29,0,0,1-6.81-1.69,42.8,42.8,0,0,1-10.14,3.29A73.35,73.35,0,0,1,2.33,73,2.32,2.32,0,0,1,1,72.55a2.4,2.4,0,0,1-.84-1.13A2.36,2.36,0,0,1,.11,70,2.24,2.24,0,0,1,.93,68.8a46.32,46.32,0,0,0,5.26-5,44.34,44.34,0,0,0,3.9-5.1A33.57,33.57,0,0,1,6.26,54.3a33.91,33.91,0,0,1-3.39-5.87A32.26,32.26,0,0,1,.76,42,31.92,31.92,0,0,1,0,35.3c0-9.76,4.51-18.61,11.81-25Z"/>
    </g>
  </g>
</svg>
