<svg xmlns="http://www.w3.org/2000/svg" viewBox="0 0 89.41 67.46">
  <defs>
    <style>
      .cls-1 {
        fill: #FEFEFE;
      }
    </style>
  </defs>
  <title>cigarette</title>
  <g id="Layer_2" data-name="Layer 2">
    <g id="Layer_1-2" data-name="Layer 1">
      <path class="cls-1" d="M87.26,45.09H2.12A2.13,2.13,0,0,0,0,47.23V65.32a2.13,2.13,0,0,0,.63,1.5,2.08,2.08,0,0,0,1.5.64H87.27a2.1,2.1,0,0,0,1.51-.64,2.07,2.07,0,0,0,.63-1.5V47.23a2.05,2.05,0,0,0-.63-1.5,2.21,2.21,0,0,0-1.52-.64ZM77,21.48c-1.75,1.16-4.15,2.75-4.15,6s2.4,4.85,4.15,6,2.24,1.57,2.24,2.45h0a2.13,2.13,0,0,0,4.26,0c0-3.26-2.4-4.84-4.15-6s-2.24-1.57-2.24-2.45.66-1.4,2.24-2.45,4.15-2.75,4.15-6-2.4-4.85-4.15-6c-1.58-1.06-2.24-1.56-2.24-2.45s.66-1.39,2.24-2.44,4.15-2.74,4.15-6a2.13,2.13,0,1,0-4.26,0c0,.88-.66,1.4-2.24,2.44s-4.15,2.75-4.15,6,2.4,4.85,4.15,6c1.58,1.07,2.24,1.57,2.24,2.45s-.64,1.39-2.24,2.45Zm.2,27.87V63.2h-50V49.35Zm-72.91,0,18.63,0V63.2H4.25V49.35ZM85.12,63.2h-3.7V49.35l3.7,0V63.2Z"/>
    </g>
  </g>
</svg>
