<svg xmlns="http://www.w3.org/2000/svg" viewBox="0 0 56.96 69">
  <defs>
    <style>
      .cls-1 {
        fill: #394b70;
      }
    </style>
  </defs>
  <title>community</title>
  <g id="Layer_2" data-name="Layer 2">
    <g id="Layer_1-2" data-name="Layer 1">
      <path class="cls-1" d="M29.91,13.94a7,7,0,1,1,7-7,7,7,0,0,1-7,7ZM9,56a6,6,0,1,1,6-6,6,6,0,0,1-6,6Zm5.08.1A3.9,3.9,0,0,1,18,60V67.7A1.31,1.31,0,0,1,16.67,69H1.31A1.3,1.3,0,0,1,0,67.7V60a3.91,3.91,0,0,1,3.9-3.9ZM42,50a6,6,0,1,1,6,6,6,6,0,0,1-6-6Zm11.07,6.08A3.9,3.9,0,0,1,57,60V67.7a1.3,1.3,0,0,1-1.3,1.3H40.28A1.3,1.3,0,0,1,39,67.7V60a3.9,3.9,0,0,1,3.91-3.9ZM22.51,50a6,6,0,1,1,6,6,6,6,0,0,1-6-6Zm11.06,6.08a3.91,3.91,0,0,1,3.9,3.9V67.7A1.3,1.3,0,0,1,36.16,69H20.8a1.31,1.31,0,0,1-1.31-1.3V60a3.91,3.91,0,0,1,3.9-3.9ZM15.33,38l-2.68-4.23a1.32,1.32,0,0,1,0-1.33,1.3,1.3,0,0,1,1.14-.67H16.2v-13a3.88,3.88,0,0,1,3.88-3.88H35.59l6.84-10.5a3.86,3.86,0,0,1,6.8,3.67L42.12,21.61c-.5,1-1,1.93-1.53,2.89L40,25.65v6.16h3.24a1.3,1.3,0,0,1,1.1,2L41.64,38V49.39H39V39H17.93V49.39h-2.6V38ZM29.91,2.6A4.37,4.37,0,1,0,34.28,7,4.36,4.36,0,0,0,29.91,2.6ZM9,46.61A3.37,3.37,0,1,0,12.36,50,3.38,3.38,0,0,0,9,46.61ZM15.37,66.4V60a1.3,1.3,0,0,0-1.29-1.3H3.91A1.3,1.3,0,0,0,2.62,60V66.4ZM51.34,50A3.37,3.37,0,1,0,48,53.35,3.38,3.38,0,0,0,51.34,50Zm3,16.42V60a1.3,1.3,0,0,0-1.29-1.3H42.89a1.3,1.3,0,0,0-1.3,1.3V66.4ZM31.85,50a3.37,3.37,0,1,0-3.37,3.37A3.38,3.38,0,0,0,31.85,50Zm3,16.42V60a1.3,1.3,0,0,0-1.3-1.3H23.39A1.3,1.3,0,0,0,22.1,60V66.4ZM18.81,31.81H19.9v-8h2.61v8H37.36V25.33a1.33,1.33,0,0,1,.28-.82c.21-.37.4-.74.6-1.11.46-.89.94-1.8,1.42-2.69,1.38-2.66,2.79-5.31,4.19-8l3.07-5.86a1.21,1.21,0,0,0,.08-1,1.23,1.23,0,0,0-.62-.74,1.25,1.25,0,0,0-1.68.53v0L37.39,17a1.32,1.32,0,0,1-1.09.59H20.08a1.27,1.27,0,0,0-1.27,1.26v13Zm22,2.61H16.13l1.22,1.94H39.61l1.23-1.94Z"/>
    </g>
  </g>
</svg>
