<svg xmlns="http://www.w3.org/2000/svg" viewBox="0 0 86.44 71.97">
  <defs>
    <style>
      .cls-1 {
        fill: #FEFEFE;
      }
    </style>
  </defs>
  <title>danger</title>
  <g id="Layer_2" data-name="Layer 2">
    <g id="Layer_1-2" data-name="Layer 1">
      <path class="cls-1" d="M85.25,64h0l.18.28A4.75,4.75,0,0,1,81.11,72H5.34a5.25,5.25,0,0,1-4.8-2.39A5.19,5.19,0,0,1,1,64.26L38.64,2.91A5.51,5.51,0,0,1,43.22,0,5.54,5.54,0,0,1,47.8,2.9L85.25,64ZM82.63,67.8l0,0c.22-.41-.18-1.23-.4-1.57L44.62,4.85c-.27-.46-.8-1.12-1.4-1.12s-1.12.66-1.4,1.12L4.19,66.2c-.2.34-.62,1.16-.4,1.57s1.15.47,1.55.47H81.12c.37,0,1.25-.06,1.51-.44ZM44.46,53.09a6.33,6.33,0,1,1-2.48,0,6.32,6.32,0,0,1-5.09-6.19V24.34a6.34,6.34,0,0,1,12.67,0V46.9a6.34,6.34,0,0,1-5.1,6.19Zm1.36-6.19V24.34a2.6,2.6,0,0,0-5.2,0V46.9a2.6,2.6,0,0,0,5.2,0Zm-2.6,15a2.6,2.6,0,1,0-2.6-2.6,2.6,2.6,0,0,0,2.6,2.6Z"/>
    </g>
  </g>
</svg>
