<svg xmlns="http://www.w3.org/2000/svg" viewBox="0 0 85 54.5">
  <defs>
    <style>
      .cls-1 {
        fill: #394b70;
      }
    </style>
  </defs>
  <title>deal</title>
  <g id="Layer_2" data-name="Layer 2">
    <g id="Layer_1-2" data-name="Layer 1">
      <path class="cls-1" d="M84.47,22.34,72.08,1.78a3.65,3.65,0,0,0-5-1.25L62.39,3.34a3.62,3.62,0,0,0-1.48,4.51l-1.35.66a3.06,3.06,0,0,1-2.34.1L47.58,5a11.29,11.29,0,0,0-6.48-.44l-3.28.76a9.77,9.77,0,0,0-1.06.29H33.9A17.75,17.75,0,0,0,29,6.31l-3.12.93H24.28a3.83,3.83,0,0,0,0-1.65A3.68,3.68,0,0,0,22.6,3.34L17.94.53a3.66,3.66,0,0,0-5,1.25L.53,22.34a3.65,3.65,0,0,0,1.24,5l4.66,2.81a3.61,3.61,0,0,0,1.89.53,3.69,3.69,0,0,0,3.14-1.77l.31-.51L16,31.06l3.64,5.81a4.64,4.64,0,0,0-.74,3,4.72,4.72,0,0,0,1.73,3.17l.25.19a4.66,4.66,0,0,0,2.43,1,5.08,5.08,0,0,0,1.86,3.36,5.22,5.22,0,0,0,3.24,1.13,6.38,6.38,0,0,0,1.23-.16,5.17,5.17,0,0,0,4.88,3.55,4.76,4.76,0,0,0,1.4-.22,4.72,4.72,0,0,0,4.2,2.58,3.2,3.2,0,0,0,.53,0,4.73,4.73,0,0,0,3.19-1.75l.84-1L47.24,53a6.42,6.42,0,0,0,8.29-2,5.1,5.1,0,0,0,1.28.16,5,5,0,0,0,4.39-2.62,4.48,4.48,0,0,0,.45-1.27,5.31,5.31,0,0,0,6.28-5.51,5.35,5.35,0,0,0,3.51-2.6c2-3.61-.86-6.21-1.82-7.07l-.06,0a6.36,6.36,0,0,1,3.75-3.52l.23.4a3.69,3.69,0,0,0,3.15,1.76,3.6,3.6,0,0,0,1.88-.53l4.66-2.8a3.66,3.66,0,0,0,1.24-5ZM7.84,27.82,3.18,25a.92.92,0,0,1-.31-1.27L15.26,3.2a1,1,0,0,1,.57-.43,1,1,0,0,1,.7.11l4.66,2.81a.86.86,0,0,1,.41.56.93.93,0,0,1-.1.71L9.11,27.5a.93.93,0,0,1-1.27.32Zm14.5,13.11A2,2,0,0,1,22,38.17l3-3.73a2,2,0,0,1,2.78-.3l.25.19a2,2,0,0,1,.3,2.77l-3,3.73a2,2,0,0,1-.91.63.37.37,0,0,0-.14,0,2,2,0,0,1-1.72-.36l-.25-.21Zm4.54,4.55A2.36,2.36,0,0,1,26,43.77a4.73,4.73,0,0,0,1.51-1.22l3-3.73a4.71,4.71,0,0,0,1-2.21,2.38,2.38,0,0,1,2.22.4,2.47,2.47,0,0,1,.89,1.88,2.15,2.15,0,0,1-.06.55,2,2,0,0,1-.46.94l-3.79,4.73a2.31,2.31,0,0,1-.36.34,2.37,2.37,0,0,1-3,0ZM33,48.86a2.4,2.4,0,0,1-.88-1.77c.08-.09.16-.16.24-.26l3.8-4.73a4.81,4.81,0,0,0,.77-1.33A2.38,2.38,0,0,1,40.09,43v.09a2.43,2.43,0,0,1-.53,1.41l-3.2,4a2.15,2.15,0,0,1-.43.42,2.36,2.36,0,0,1-2.92,0Zm7.33,2.88a2,2,0,0,1-2.08-1.26l.24-.26,3.2-4a5,5,0,0,0,1-2.06,2,2,0,0,1,1.58.4A2,2,0,0,1,45,46.16a2,2,0,0,1-.44,1.26L43.32,49a.93.93,0,0,0-.13.15L41.69,51a2,2,0,0,1-1.35.74Zm8.2-1.12-2.11-1.13.29-.36a4.59,4.59,0,0,0,1-2.13L53,49.81a3.67,3.67,0,0,1-4.46.81ZM69,37.84a2.61,2.61,0,0,1-2.61,1.3,2.68,2.68,0,0,1-.89-.3l-11.4-6.36a1.37,1.37,0,0,0-1.34,2.39l11.38,6.34a4.63,4.63,0,0,0,1,.43,2.56,2.56,0,0,1-3.74,2.69l-11.54-6.1a1.37,1.37,0,1,0-1.27,2.42L59,46.18a2.13,2.13,0,0,1-.26,1.08,2.22,2.22,0,0,1-3,.92l-.15-.08h0l-8.67-4.6A5.22,5.22,0,0,0,46,42.44a4.73,4.73,0,0,0-3.42-1,5.1,5.1,0,0,0-5.35-3.52,5.15,5.15,0,0,0-1.83-3,5.07,5.07,0,0,0-4.31-1A6.2,6.2,0,0,0,29.52,32a4.71,4.71,0,0,0-6.62.72l-1.48,1.83-3.27-5.21a1.42,1.42,0,0,0-.44-.44l-4.52-2.84L22.88,10h3.18a1.31,1.31,0,0,0,.39-.05l3.31-1a12.77,12.77,0,0,1,1.6-.37,14.75,14.75,0,0,0-2.85,3.32l-3.25,5.15a3.74,3.74,0,0,0,1.11,5.08,7.72,7.72,0,0,0,8.7-.16L42,17.1l15.15,7.68L67.8,34.15c2,1.83,1.74,2.79,1.24,3.69Zm-1.62-7.67-8.61-7.56a1.12,1.12,0,0,0-.29-.19l-16-8.12a1.37,1.37,0,0,0-1.47.07L33.5,19.73a5,5,0,0,1-5.63.1,1,1,0,0,1-.29-1.32l3.25-5.15A12,12,0,0,1,37.27,8.3h0A11.77,11.77,0,0,1,38.43,8l3.29-.75a8.43,8.43,0,0,1,4.89.33l9.63,3.62a5.77,5.77,0,0,0,4.5-.19l1.52-.74,9.62,15.91a9,9,0,0,0-4.46,4ZM81.82,25l-4.66,2.81a.94.94,0,0,1-1.27-.32l-.79-1.31h0L63.5,7a.94.94,0,0,1-.11-.71.91.91,0,0,1,.42-.56l4.66-2.81A.91.91,0,0,1,69,2.75l.21,0a.91.91,0,0,1,.58.43L82.13,23.75A.92.92,0,0,1,81.82,25Z"/>
    </g>
  </g>
</svg>
