<svg xmlns="http://www.w3.org/2000/svg" viewBox="0 0 83.76 84.25">
  <defs>
    <style>
      .cls-1 {
        fill: #FEFEFE;
      }
    </style>
  </defs>
  <title>emoji</title>
  <g id="Layer_2" data-name="Layer 2">
    <g id="Layer_1-2" data-name="Layer 1">
      <path class="cls-1" d="M51.3,26.8A5.1,5.1,0,1,1,58.5,34a5.11,5.11,0,0,1-8.7-3.61,5.14,5.14,0,0,1,1.5-3.61Zm-26,0A5.09,5.09,0,1,1,32.45,34a5,5,0,0,1-7.19,0,5.07,5.07,0,0,1,0-7.22Zm.35,26.82a3.09,3.09,0,0,1,2.31-1.13H55.86a3.09,3.09,0,0,1,2.31,1.13,3.88,3.88,0,0,1,0,5,3.12,3.12,0,0,1-2.32,1.11H27.92A3.07,3.07,0,0,1,25.6,58.6a3.8,3.8,0,0,1-.93-2.51,3.74,3.74,0,0,1,.94-2.47ZM12.27,12.36a41.66,41.66,0,0,1,59.23,0,42.27,42.27,0,0,1,0,59.54,41.68,41.68,0,0,1-59.23,0,42.25,42.25,0,0,1,0-59.54ZM66.9,17a35.28,35.28,0,0,0-50,0,35.82,35.82,0,0,0,0,50.35,35.3,35.3,0,0,0,50,0A35.8,35.8,0,0,0,66.9,17Z"/>
    </g>
  </g>
</svg>
