<svg xmlns="http://www.w3.org/2000/svg" viewBox="0 0 446 436.39">
  <defs>
    <style>
      .cls-1 {
        fill: #394b70;
      }
    </style>
  </defs>
  <title>hands</title>
  <g id="Layer_2" data-name="Layer 2">
    <g id="Capa_1" data-name="Capa 1">
      <g>
        <path class="cls-1" d="M154.2,201.23V72.1a8,8,0,0,0-16,0V185.23l-14-14V52.1a8,8,0,0,0-16,0V155.23l-9.77-9.77a32.22,32.22,0,0,0-4.23-3.55V32.1a8,8,0,0,0-16,0V136.17c-.82-.07-1.64-.11-2.46-.11A32,32,0,0,0,64.2,138.2V32.1a32.1,32.1,0,1,0-64.2,0c0,.25,0,6.48,0,16.56,0,.15,0,.29,0,.43s0,.3,0,.45C.06,81.72.14,151,.14,194a8.05,8.05,0,0,0,1,3.92l93.2,165.78v64.65a8,8,0,0,0,16,0V361.64a8.05,8.05,0,0,0-1-3.92L16.14,191.94C16.14,152,16.07,91,16,57.1h4a8,8,0,0,0,0-16H16c0-5.56,0-8.82,0-9a16.1,16.1,0,0,1,32.2,0v119a4.36,4.36,0,0,0,0,.51A32.13,32.13,0,0,0,53,190.86L127.19,265A8,8,0,1,0,138.5,253.7L80.9,196.1l8-8a8,8,0,0,0-11.31-11.31l-8,8-5.24-5.23a16.1,16.1,0,0,1,22.77-22.77l23.42,23.42h0l30,30h0l33.88,33.89c24.31,24.3,24.09,43.37,23.21,123.59-.19,17.5-.41,37.33-.41,60.71a8,8,0,0,0,16,0c0-23.29.22-43.08.41-60.53.9-81.44,1.17-106-27.9-135.08Z"/>
        <path class="cls-1" d="M446,48.67c0-10.09,0-16.32,0-16.57a32.1,32.1,0,0,0-64.2,0V138.2a32,32,0,0,0-11.54-2.14c-.82,0-1.64,0-2.46.11V32.1a8,8,0,0,0-16,0V141.91a31.54,31.54,0,0,0-4.23,3.56l-9.77,9.76V52.1a8,8,0,0,0-16,0V171.23l-14,14V72.1a8,8,0,1,0-16,0V201.23l-31.55,31.55c-29.06,29.06-28.79,53.64-27.89,135.08.19,17.45.41,37.24.41,60.53a8,8,0,0,0,16,0c0-23.38-.22-43.21-.41-60.71-.89-80.22-1.1-99.29,23.21-123.59l87.31-87.31a16.1,16.1,0,0,1,22.77,22.77l-5.23,5.23-8-8a8,8,0,0,0-11.32,11.31l8,8-57.6,57.6A8,8,0,1,0,318.81,265l63.26-63.26h0L393,190.86a32.14,32.14,0,0,0,4.82-39.23c0-.17,0-.34,0-.51V32.1a16.1,16.1,0,0,1,32.2,0c0,.18,0,3.45,0,9h-4.06a8,8,0,0,0,0,16h4c0,33.93-.11,94.88-.11,134.84l-93.2,165.79a7.89,7.89,0,0,0-1,3.92v66.74a8,8,0,0,0,16,0V363.74L444.83,198a8.05,8.05,0,0,0,1-3.92c0-43,.08-112.31.12-144.48,0-.16,0-.31,0-.46S446,48.81,446,48.67Z"/>
      </g>
    </g>
  </g>
</svg>
