<svg xmlns="http://www.w3.org/2000/svg" viewBox="0 0 80.15 67.46">
  <defs>
    <style>
      .cls-1 {
        fill: #FEFEFE;
      }
    </style>
  </defs>
  <title>heart</title>
  <g id="Layer_2" data-name="Layer 2">
    <g id="Layer_1-2" data-name="Layer 1">
      <path class="cls-1" d="M50.77,1.58A21.74,21.74,0,0,1,58.9,0h.76A21.93,21.93,0,0,1,67,1.58a20.82,20.82,0,0,1,6.87,4.49l.36.35a20.61,20.61,0,0,1,0,28.82L42.14,66.62a2.91,2.91,0,0,1-4.09,0C27.31,56.23,16.47,45.79,5.88,35.26a20.56,20.56,0,0,1,0-28.78l.37-.37a21.56,21.56,0,0,1,30,0L40,9.81l3.84-3.74a21.27,21.27,0,0,1,6.89-4.49ZM64.81,7A15.74,15.74,0,0,0,53,7a15.53,15.53,0,0,0-5,3.27L42.11,16a2.92,2.92,0,0,1-2,.84,2.78,2.78,0,0,1-.76-.1v.52l-7.12-7a15.66,15.66,0,0,0-21.83,0l-.3.3a14.51,14.51,0,0,0,0,20.48C19.91,41,30.12,50.65,40.11,60.39l30-29.31a14.51,14.51,0,0,0,0-20.5l-.28-.28a15.6,15.6,0,0,0-5-3.27Z"/>
    </g>
  </g>
</svg>
