<svg xmlns="http://www.w3.org/2000/svg" viewBox="0 0 287.27 449.91">
  <defs>
    <style>
      .cls-1 {
        fill: #FEFEFE;
      }
    </style>
  </defs>
  <title>location</title>
  <g id="Layer_2" data-name="Layer 2">
    <g id="Layer_1-2" data-name="Layer 1">
      <path class="cls-1" d="M133.75,408.4,126,397C84.05,335.47,0,212.06,0,143.63A143.2,143.2,0,0,1,42.07,42.07l.7-.63a143.63,143.63,0,0,1,244.5,102.2c0,68.5-84,191.81-125.91,253.32l-8,11.64a11.79,11.79,0,0,1-19.65-.2Zm51.65-8.5a11.83,11.83,0,1,1,7.95-22.28c8.77,3.13,16.1,7.19,21.36,11.91,6.45,5.8,10.06,12.68,10.06,20.38,0,13.08-10.59,23.92-27.7,30.87-13.87,5.64-32.78,9.13-53.42,9.13s-39.55-3.49-53.42-9.13c-17.11-6.95-27.7-17.79-27.7-30.87,0-7.7,3.6-14.58,10.06-20.38,5.25-4.72,12.58-8.78,21.35-11.91a11.83,11.83,0,1,1,8,22.28C96,402,91.33,404.48,88.42,407.1c-1.41,1.26-2.2,2.24-2.2,2.8,0,2.48,4.94,5.73,12.9,9,11.19,4.55,26.92,7.37,44.54,7.37s33.36-2.82,44.54-7.37c8-3.23,12.9-6.48,12.9-9,0-.56-.79-1.54-2.19-2.8-2.92-2.62-7.56-5.09-13.49-7.2ZM23.69,143.63c0,60.34,78.87,177,120,237.36,41.09-60.35,120-177.1,120-237.36A120,120,0,0,0,59.35,58.22l-.54.59a119.61,119.61,0,0,0-35.13,84.82Zm120-73.18A73.18,73.18,0,1,1,91.9,195.36l-.64-.69A73.1,73.1,0,0,1,91.9,91.9l.7-.65a72.91,72.91,0,0,1,51-20.8Zm35,38.16a49.6,49.6,0,0,0-69.48-.54l-.52.56a49.58,49.58,0,0,0-.55,69.49l.54.51a49.5,49.5,0,0,0,70-70Z"/>
    </g>
  </g>
</svg>
