<svg xmlns="http://www.w3.org/2000/svg" viewBox="0 0 53.8 74">
  <defs>
    <style>
      .cls-1 {
        fill: #394b70;
      }
    </style>
  </defs>
  <title>medal</title>
  <g id="Layer_2" data-name="Layer 2">
    <g id="Layer_1-2" data-name="Layer 1">
      <path class="cls-1" d="M26.92,0A22.71,22.71,0,0,0,13.37,40.92L4.28,56.27h0A1.68,1.68,0,0,0,4,57.57a1.62,1.62,0,0,0,.78,1.08,1.64,1.64,0,0,0,1.33.18,1.7,1.7,0,0,0,1-.84l9-15.29a22.47,22.47,0,0,0,21.43,0L49.19,62.24h-6.3a1.67,1.67,0,0,0-1.5.92l-2.84,5.67L28.37,52.09h0a1.68,1.68,0,0,0-1.45-.82,1.65,1.65,0,0,0-1.44.82L15.28,68.83l-2.84-5.67A1.66,1.66,0,0,0,11,62.24H1.7a1.63,1.63,0,0,0-1.2.48,1.68,1.68,0,0,0,0,2.39,1.65,1.65,0,0,0,1.2.48H9.93l3.72,7.47h0a1.71,1.71,0,0,0,1.43.94,1.67,1.67,0,0,0,1.51-.81l10.32-17,10.32,17a1.65,1.65,0,0,0,1.51.81,1.67,1.67,0,0,0,1.42-.94l3.74-7.47h8.22a1.67,1.67,0,0,0,1.44-2.54L40.48,40.92A22.72,22.72,0,0,0,26.92,0Zm0,3.36A19.35,19.35,0,1,1,7.59,22.71,19.31,19.31,0,0,1,26.92,3.36Zm-.16,5.89h0a1.66,1.66,0,0,0-1.33.92l-3,6-6.77,1.49a1.69,1.69,0,0,0-1.23,1.11,1.64,1.64,0,0,0,.31,1.63l4.58,5.33-.8,6.83a1.7,1.7,0,0,0,.71,1.58,1.73,1.73,0,0,0,1.73.11l6-3.11,6,3.11a1.68,1.68,0,0,0,2.44-1.69l-.79-6.83,4.56-5.33a1.67,1.67,0,0,0,.33-1.63,1.7,1.7,0,0,0-1.24-1.11l-6.77-1.49-3-6h0a1.66,1.66,0,0,0-1.65-.92Zm.16,5.44,1.86,3.73h0a1.67,1.67,0,0,0,1.13.86l4.83,1.08-3.22,3.76h0a1.71,1.71,0,0,0-.4,1.3l.49,4.44-3.92-2.05h0a1.69,1.69,0,0,0-1.52,0l-3.94,2,.5-4.44a1.72,1.72,0,0,0-.39-1.29l-3.24-3.76,4.84-1.08h0a1.69,1.69,0,0,0,1.13-.86l1.86-3.73Z"/>
    </g>
  </g>
</svg>
