<svg xmlns="http://www.w3.org/2000/svg" viewBox="0 0 69.36 69">
  <defs>
    <style>
      .cls-1 {
        fill: #394b70;
      }
    </style>
  </defs>
  <title>noise</title>
  <g id="Layer_2" data-name="Layer 2">
    <g id="Layer_1-2" data-name="Layer 1">
      <path class="cls-1" d="M35.12,23.69a6.22,6.22,0,0,1,1.25-.59,6.13,6.13,0,0,1,7.74,3.84L49.2,42.06,49.12,42a5.26,5.26,0,0,1-.24,2.8,5.17,5.17,0,0,1-2.25,2.71l-2.82,1.7H45a2.94,2.94,0,0,1,2.94,2.94V67.65a1.36,1.36,0,0,1-2.72,0V60.92H4v6.73a1.36,1.36,0,0,1-2.72,0V52.12a3,3,0,0,1,3-2.94H5.4l-2.83-1.7A5.26,5.26,0,0,1,.32,44.77a5.34,5.34,0,0,1,0-3.53L5.09,27a6.14,6.14,0,0,1,7.75-3.85,6.78,6.78,0,0,1,1.25.59,12.49,12.49,0,0,1,21,0ZM50.25,10.76l0-3.68a1.37,1.37,0,0,1,1.11-1.35L55,5.05l0-3.68A1.37,1.37,0,0,1,56.29,0h0a1.37,1.37,0,0,1,1.37,1.35l0,4.82a1.37,1.37,0,0,1-1.11,1.35L53,8.19l0,3.69a1.37,1.37,0,0,1-1.12,1.35l-3.63.67,0,3.69A1.36,1.36,0,0,1,46.91,19h0a1.37,1.37,0,0,1-1.37-1.35l0-4.82a1.34,1.34,0,0,1,1.12-1.34l3.63-.69Zm10.63,9.69L58.4,23.18a1.35,1.35,0,0,1-1.73.23l-3.14-2L51,24.18a1.38,1.38,0,0,1-1,.44,1.4,1.4,0,0,1-.92-.35A1.38,1.38,0,0,1,49,22.34l3.27-3.56A1.36,1.36,0,0,1,54,18.54l3.13,2,2.5-2.73a1.34,1.34,0,0,1,1.72-.24l3.13,2L67,16.78a1.36,1.36,0,0,1,2,1.83l-3.26,3.56a1.37,1.37,0,0,1-1.74.24l-3.13-2ZM33.13,25.64a9.79,9.79,0,0,0-17.06,0c.11.18.21.35.3.53a6,6,0,0,1,.32,4.67l-1.13,3.36a9.8,9.8,0,0,0,18.07,0l-1.12-3.36a6.08,6.08,0,0,1,.32-4.66c.09-.18.2-.36.3-.53ZM19.8,35.82A3.18,3.18,0,0,1,20,34.64a3.86,3.86,0,0,1,1.71-1.94,5.88,5.88,0,0,1,5.73,0,4,4,0,0,1,1.72,1.93,3.49,3.49,0,0,1,.22,1.2,1.36,1.36,0,0,1-2.72,0,1,1,0,0,0-.56-.76,2.87,2.87,0,0,0-1.51-.4,2.93,2.93,0,0,0-1.53.41c-.24.15-.57.44-.57.75a1.36,1.36,0,0,1-2.72,0Zm15,1.84a13.66,13.66,0,0,1-1.63,1.85,14.34,14.34,0,0,1,1.32,1L35.4,40a.24.24,0,0,0,.1-.27l-.7-2.07ZM16.05,39.51a12.61,12.61,0,0,1-1.65-1.85l-.69,2.07a.22.22,0,0,0,.1.26l.9.55a13.59,13.59,0,0,1,1.34-1ZM4,58.21H45.24V52.12A.22.22,0,0,0,45,51.9H4.21a.23.23,0,0,0-.23.22v6.09Zm26.84-17a12.42,12.42,0,0,1-12.44,0c-.23.13-.45.28-.66.42a12.79,12.79,0,0,0-1.86,1.51,1.34,1.34,0,0,1-1.67.22L12.4,42.31a2.92,2.92,0,0,1-1.27-3.45l3-8.9A3.39,3.39,0,0,0,12,25.67a3.42,3.42,0,0,0-4.31,2.14l-4.8,14.3A2.6,2.6,0,0,0,4,45.17l6.66,4H38.56l6.67-4a2.62,2.62,0,0,0,1.13-3.05L41.55,27.81a3.43,3.43,0,0,0-4.31-2.14A3.39,3.39,0,0,0,35.09,30l3,8.9a2.93,2.93,0,0,1-1.26,3.45L35,43.39a1.37,1.37,0,0,1-1.68-.21,11.55,11.55,0,0,0-1.84-1.51c-.23-.15-.45-.3-.68-.43Z"/>
    </g>
  </g>
</svg>
