<svg xmlns="http://www.w3.org/2000/svg" viewBox="0 0 84.91 62.6">
  <defs>
    <style>
      .cls-1 {
        fill: #394b70;
      }
    </style>
  </defs>
  <title>online</title>
  <g id="Layer_2" data-name="Layer 2">
    <g id="Layer_1-2" data-name="Layer 1">
      <path class="cls-1" d="M73.49,0H11.24A7.46,7.46,0,0,0,3.63,7.61V49.8H1.73A1.64,1.64,0,0,0,0,51.53v1.39A9.78,9.78,0,0,0,9.68,62.6H75.22a9.79,9.79,0,0,0,9.69-9.68V51.53a1.64,1.64,0,0,0-1.73-1.73h-1.9V7.61A7.84,7.84,0,0,0,73.49,0ZM42.71,37.18C50,37.18,56,28.19,56,20.92a13.32,13.32,0,0,0-26.63,0c.17,7.44,6.05,16.26,13.31,16.26Zm0-25.94a9.64,9.64,0,0,1,9.69,9.51c0,5.71-4.67,12.8-9.69,12.8S33,26.29,33,20.75a9.75,9.75,0,0,1,9.68-9.51ZM7.26,7.61a4.1,4.1,0,0,1,4.15-4.15H73.67a4.1,4.1,0,0,1,4.15,4.15V49.8h-15A18.55,18.55,0,0,0,46,39.08H39.25A18.55,18.55,0,0,0,22.48,49.8H7.26V7.61ZM58.8,49.8H26.11a15.18,15.18,0,0,1,13-7.26h6.75a15.81,15.81,0,0,1,13,7.26Zm22.48,3.46A6.12,6.12,0,0,1,75.05,59H9.68a6.34,6.34,0,0,1-6.22-5.71Z"/>
    </g>
  </g>
</svg>
