<svg xmlns="http://www.w3.org/2000/svg" viewBox="0 0 358.04 449.91">
  <defs>
    <style>
      .cls-1 {
        fill: #394b70;
      }
    </style>
  </defs>
  <title>pp</title>
  <g id="Layer_2" data-name="Layer 2">
    <g id="Layer_1-2" data-name="Layer 1">
      <g>
        <path class="cls-1" d="M27.47,367V27.47h164.8v73.41A13.74,13.74,0,0,0,206,114.61h73.4v134a104.86,104.86,0,0,1,27.47,5.21V86.66a13.21,13.21,0,0,0-3.79-9.47l-73.4-73.4A14.09,14.09,0,0,0,220.21,0H13.73A13.75,13.75,0,0,0,0,13.73v367a13.75,13.75,0,0,0,13.73,13.74H161A104.25,104.25,0,0,1,156.29,367ZM219.74,32.67,274.2,87.13H219.74Z"/>
        <path class="cls-1" d="M150.6,292.2H85.25a13.74,13.74,0,1,0,0,27.47H150.6a13.74,13.74,0,1,0,0-27.47Z"/>
        <path class="cls-1" d="M221.63,223.53H85.24a13.74,13.74,0,0,0,0,27.47H221.63a13.74,13.74,0,1,0,0-27.47Z"/>
        <path class="cls-1" d="M221.63,155.34H85.24a13.74,13.74,0,0,0,0,27.47H221.63a13.74,13.74,0,1,0,0-27.47Z"/>
        <path class="cls-1" d="M85.24,114.61h55.89a13.74,13.74,0,0,0,0-27.47H85.24a13.74,13.74,0,0,0,0,27.47Z"/>
        <path class="cls-1" d="M270.89,275.63A87.14,87.14,0,1,0,358,362.77a86.9,86.9,0,0,0-87.15-87.14Zm41.68,77.19-44.52,44.52a12.83,12.83,0,0,1-9.47,3.79,14,14,0,0,1-9.47-3.79l-22.73-21.78a13.73,13.73,0,0,1,19.42-19.42l12.31,12.31,35-35a14,14,0,0,1,19.42,0c5.21,5.68,5.21,14.21,0,19.41Z"/>
      </g>
    </g>
  </g>
</svg>
