<svg xmlns="http://www.w3.org/2000/svg" viewBox="0 0 80.53 71.96">
  <defs>
    <style>
      .cls-1 {
        fill: #FEFEFE;
      }
    </style>
  </defs>
  <title>speed</title>
  <g id="Layer_2" data-name="Layer 2">
    <g id="Layer_1-2" data-name="Layer 1">
      <path class="cls-1" d="M18.1,67A2.63,2.63,0,0,1,19,68.92a2.69,2.69,0,0,1-.71,2,2.71,2.71,0,0,1-1.93.85,2.63,2.63,0,0,1-1.71-.62,40.1,40.1,0,0,1,43-67.07,2.68,2.68,0,0,1-2.31,4.84A34.75,34.75,0,0,0,18.1,67ZM76.67,23.19a2.64,2.64,0,0,0-1.51-1.51,2.68,2.68,0,0,0-2.13.07,2.69,2.69,0,0,0-1.17,3.74,34.77,34.77,0,0,1-9.3,41.73,2.63,2.63,0,0,0-1,1.89,2.66,2.66,0,0,0,.72,2,2.7,2.7,0,0,0,1.95.85A2.6,2.6,0,0,0,66,71.33,40.1,40.1,0,0,0,76.65,23.21l0,0ZM49.62,35a10.46,10.46,0,0,1,1.51,5.35,10.68,10.68,0,1,1-10.68-10.7,10.37,10.37,0,0,1,5.34,1.52L65,12.07a2.67,2.67,0,0,1,2.59-.7,2.69,2.69,0,0,1,1.2,4.5L49.62,35ZM45.79,40.4a5.33,5.33,0,1,0-2.09,4.25,5.36,5.36,0,0,0,2.09-4.25Z"/>
    </g>
  </g>
</svg>
