<?xml version="1.0" encoding="iso-8859-1"?>
<!DOCTYPE svg PUBLIC "-//W3C//DTD SVG 1.1//EN" "http://www.w3.org/Graphics/SVG/1.1/DTD/svg11.dtd">
<svg version="1.1" id="Capa_1" xmlns="http://www.w3.org/2000/svg" xmlns:xlink="http://www.w3.org/1999/xlink" x="0px" y="0px" viewBox="0 0 512 512" style="enable-background:new 0 0 512 512;" xml:space="preserve"><g>
<g><path style="fill:#394b70;" d="M224,343.954c-6.539,0-12.43-3.984-14.859-10.059l-27.977-69.941H16c-8.836,0-16-7.164-16-16 c0-8.836,7.164-16,16-16h176c6.539,0,12.43,3.984,14.859,10.059L224,284.872l49.141-122.859c2.43-6.074,8.32-10.059,14.859-10.059 s12.43,3.984,14.859,10.059l27.977,69.941H496c8.836,0,16,7.164,16,16c0,8.836-7.164,16-16,16H320 c-6.539,0-12.43-3.984-14.859-10.059L288,211.036l-49.141,122.859C236.43,339.969,230.539,343.954,224,343.954z"/></g><g><path style="fill:#394b70;" d="M493.063,215.958c-1.133,0-2.281-0.121-3.43-0.371c-8.633-1.887-14.102-10.414-12.219-19.047 c7.984-36.527-3.273-74.055-30.109-100.383c-43.75-42.91-114.898-42.895-158.617,0c-7.266,7.137-13.578,15.414-18.75,24.59 c-2.836,5.031-8.156,8.145-13.93,8.145c-0.008,0-0.008,0-0.008,0c-5.773,0-11.094-3.109-13.938-8.137 c-5.18-9.188-11.5-17.465-18.766-24.605c-43.734-42.902-114.891-42.887-158.609,0.008 c-26.828,26.332-38.086,63.859-30.109,100.383c1.883,8.633-3.586,17.16-12.219,19.047c-8.625,1.859-17.164-3.582-19.047-12.219 c-10.344-47.34,4.227-95.957,38.969-130.051c56.078-55.023,147.352-55.031,203.43-0.004c3.625,3.555,7.055,7.32,10.281,11.277 c3.234-3.957,6.664-7.719,10.281-11.27c56.094-55.031,147.359-55.031,203.438-0.008c34.742,34.09,49.312,82.707,38.969,130.055 C507.047,210.852,500.422,215.958,493.063,215.958z"/></g><g><path style="fill:#394b70;" d="M256,479.954c-4.086,0-8.164-1.555-11.289-4.66l-168.75-168 c-6.266-6.234-6.281-16.367-0.047-22.629c6.234-6.262,16.359-6.289,22.625-0.051L256,441.376l157.453-156.762 c6.273-6.227,16.398-6.211,22.625,0.051c6.234,6.262,6.219,16.395-0.047,22.629l-168.742,168 C264.164,478.399,260.086,479.954,256,479.954z"/></g></g></svg>
