<svg xmlns="http://www.w3.org/2000/svg" viewBox="0 0 71 71">
  <defs>
    <style>
      .cls-1 {
        fill: #394b70;
      }
    </style>
  </defs>
  <title>group</title>
  <g id="Layer_2" data-name="Layer 2">
    <g id="Layer_1-2" data-name="Layer 1">
      <path class="cls-1" d="M38,71H7.62a7.32,7.32,0,0,1-5.46-2.16A7.42,7.42,0,0,1,0,63.38v-7.6a22.83,22.83,0,0,1,45.65,0v7.6A7.39,7.39,0,0,1,38,71ZM58.33,17.75a8.86,8.86,0,1,1,6.27-2.6,8.9,8.9,0,0,1-6.27,2.6Zm0-12.68A3.79,3.79,0,1,0,61,6.18a3.81,3.81,0,0,0-2.68-1.11Zm7.6,40.57H50.72a5.09,5.09,0,0,1-5.07-5.07V33A12.68,12.68,0,1,1,71,33v7.61a5,5,0,0,1-1.49,3.58,5.07,5.07,0,0,1-3.58,1.49Zm-7.6-20.29A7.37,7.37,0,0,0,50.71,33v7.61H65.92V33a7.36,7.36,0,0,0-7.59-7.61ZM22.82,30.43a12.7,12.7,0,1,1,9-3.72,12.65,12.65,0,0,1-9,3.72Zm0-20.29a7.34,7.34,0,0,0-7.6,7.61,7.61,7.61,0,0,0,15.21,0,7.36,7.36,0,0,0-7.61-7.61Zm0,27.89A17.72,17.72,0,0,0,5.08,55.77v7.61a2.28,2.28,0,0,0,2.54,2.54H38a2.27,2.27,0,0,0,2.53-2.53v-7.6A17.77,17.77,0,0,0,22.82,38Z"/>
    </g>
  </g>
</svg>
