<svg xmlns="http://www.w3.org/2000/svg" viewBox="0 0 87 52.26">
  <defs>
    <style>
      .cls-1 {
        fill: #5483e0;
      }
    </style>
  </defs>
  <title>quote</title>
  <g id="Layer_2" data-name="Layer 2">
    <g id="Layer_1-2" data-name="Layer 1">
      <g>
        <path class="cls-1" d="M67.21,52.26a19.8,19.8,0,0,1-19.8-19.79C47.41,17,58.07,8.1,69.68.27a1.53,1.53,0,0,1,2.2,2A26.63,26.63,0,0,0,68.5,12.72a19.79,19.79,0,0,1-1.29,39.54Z"/>
        <path class="cls-1" d="M19.79,52.26A19.79,19.79,0,0,1,0,32.47C0,17,10.65,8.1,22.26.27a1.53,1.53,0,0,1,2.2,2,26.84,26.84,0,0,0-3.38,10.45,19.79,19.79,0,0,1-1.29,39.54Z"/>
      </g>
    </g>
  </g>
</svg>
