<svg xmlns="http://www.w3.org/2000/svg" viewBox="0 0 85.33 64">
  <defs>
    <style>
      .cls-1 {
        fill: #394b70;
      }
    </style>
  </defs>
  <title>settings</title>
  <g id="Layer_2" data-name="Layer 2">
    <g id="Layer_1-2" data-name="Layer 1">
      <path class="cls-1" d="M22.41,17.38V14.93a2.14,2.14,0,0,0-4.27,0v2.45a7.46,7.46,0,0,0,0,14.3V49.07a2.13,2.13,0,1,0,4.26,0V31.68a7.46,7.46,0,0,0,0-14.3ZM20.27,27.74a3.22,3.22,0,0,1-3.2-3.21,3.2,3.2,0,1,1,6.4,0,3.22,3.22,0,0,1-3.2,3.21Zm24.52,4.58V14.93a2.13,2.13,0,0,0-4.25,0V32.32a7.45,7.45,0,0,0,0,14.29v2.46a2.13,2.13,0,1,0,4.25,0V46.62a7.46,7.46,0,0,0,0-14.3ZM42.67,42.67a3.21,3.21,0,0,1-3.2-3.19,3.2,3.2,0,1,1,6.4,0,3.21,3.21,0,0,1-3.2,3.19ZM67.2,23.78V14.93a2.14,2.14,0,0,0-4.27,0v8.85a7.46,7.46,0,0,0,0,14.3v11a2.14,2.14,0,1,0,4.27,0v-11a7.46,7.46,0,0,0,0-14.3ZM65.07,34.14a3.23,3.23,0,0,1-3.21-3.21,3.2,3.2,0,1,1,6.4,0,3.21,3.21,0,0,1-3.19,3.21ZM83.21,0H2.14A2.14,2.14,0,0,0,0,2.13V61.86A2.14,2.14,0,0,0,2.14,64H83.21a2.14,2.14,0,0,0,2.12-2.14V2.14A2.14,2.14,0,0,0,83.21,0ZM81.06,59.74H4.26V4.27H81.05V59.74Z"/>
    </g>
  </g>
</svg>
